<svg id="visual" viewBox="0 0 900 600" width="900" height="600" xmlns="http://www.w3.org/2000/svg" xmlns:xlink="http://www.w3.org/1999/xlink" version="1.1"><g transform="translate(900 600)"><path d="M429.9 -744.6C559.8 -669.6 669.6 -559.8 744.6 -429.9C819.6 -300 859.8 -150 859.8 0C859.8 150 819.6 300 744.6 429.9C669.6 559.8 559.8 669.6 429.9 744.6C300 819.6 150 859.8 0 859.8C-150 859.8 -300 819.6 -429.9 744.6C-559.8 669.6 -669.6 559.8 -744.6 429.9C-819.6 300 -859.8 150 -859.8 0C-859.8 -150 -819.6 -300 -744.6 -429.9C-669.6 -559.8 -559.8 -669.6 -429.9 -744.6C-300 -819.6 -150 -859.8 0 -859.8C150 -859.8 300 -819.6 429.9 -744.6" fill="#101C5C"></path></g></svg>